<svg xmlns="http://www.w3.org/2000/svg" width="300" height="400" viewBox="0 0 299.99998 400.00002"><g transform="translate(0 -652.362)"><path class="wufoo-background" fill="#f15709" fill-opacity=".944" d="M0 652.362h300.849v400h-300.849z"/><text class="wufoo-letter" style="line-height:125%" x="-198.291" y="650.069" transform="matrix(.879 -.291 .339 1.025 0 0)" font-size="60" font-family="sans-serif" letter-spacing="0" word-spacing="0" fill="#fff"><tspan x="-198.291" y="650.069" style="-inkscape-font-specification:'Tamil MN Bold'" font-weight="bold" font-size="60" font-family="Tamil MN" fill="#fff">W</tspan></text><text style="line-height:125%" x="33.956" y="747.438" font-size="40" font-family="sans-serif" letter-spacing="0" word-spacing="0"><tspan x="33.956" y="747.438" style="-inkscape-font-specification:Seravek" font-size="25" font-family="Seravek" fill="#fff">The only form builder</tspan></text><text class="wufoo-fast" style="line-height:125%" x="89.643" y="844.552" font-size="40" font-family="sans-serif" letter-spacing="0" word-spacing="0"><tspan x="89.643" y="844.552" style="-inkscape-font-specification:'sans-serif Bold'" font-weight="bold" font-family="sans-serif" fill="#fff">Fast.</tspan></text><text class="wufoo-letter" style="line-height:125%" x="179.578" y="699.587" transform="rotate(8.11)" font-size="40" font-family="sans-serif" letter-spacing="0" word-spacing="0" fill="#fff"><tspan x="179.578" y="699.587" style="-inkscape-font-specification:'Tamil MN Light'" font-weight="300" font-size="60" font-family="Tamil MN" fill="#fff">U</tspan></text><text class="wufoo-letter" style="line-height:125%" x="-28.531" y="725.97" transform="matrix(.976 -.216 .216 .976 0 0)" font-size="40" font-family="sans-serif" letter-spacing="0" word-spacing="0"><tspan x="-28.531" y="725.97" style="-inkscape-font-specification:'Tamil MN Light'" font-weight="300" font-size="60" font-family="Tamil MN" fill="#fff">F</tspan></text><text class="wufoo-letter" style="line-height:125%" x="152.122" y="712.803" font-size="40" font-family="sans-serif" letter-spacing="0" word-spacing="0" fill="#fff"><tspan x="152.122" y="712.803" style="-inkscape-font-specification:'Tamil MN Light'" font-weight="300" font-size="60" font-family="Tamil MN" fill="#fff">O</tspan></text><text class="wufoo-letter" style="line-height:125%" x="196.265" y="703.296" font-size="40" font-family="sans-serif" letter-spacing="0" word-spacing="0" fill="#fff"><tspan x="196.265" y="703.296" style="-inkscape-font-specification:'Tamil MN Light'" font-weight="300" font-size="60" font-family="Tamil MN" fill="#fff">O</tspan></text><rect width="110.017" height="102.547" x="91.578" y="911.105" ry="18.336" opacity=".3" fill="#fea" fill-opacity=".888"/><path d="M156.071 941.666l4.081-9.055-5.146-8.495 9.873 1.083 6.489-7.519 2.021 9.724 9.156 3.848-8.624 4.927-.83 9.897-7.351-6.679z" fill="#fff" fill-opacity=".888"/><path d="M137.021 969.509l4.081-9.055-5.146-8.495 9.873 1.083 6.489-7.519 2.021 9.724 9.156 3.848-8.624 4.927-.83 9.897-7.351-6.679z" fill="#fff" fill-opacity=".888"/><path d="M117.971 997.353l4.081-9.055-5.146-8.495 9.873 1.083 6.489-7.519 2.021 9.724 9.156 3.848-8.624 4.927-.83 9.897-7.351-6.679z" fill="#fff" fill-opacity=".888"/></g></svg>